<?xml version="1.0" encoding="UTF-8" standalone="no"?>
<svg
   xmlns:dc="http://purl.org/dc/elements/1.1/"
   xmlns:cc="http://creativecommons.org/ns#"
   xmlns:rdf="http://www.w3.org/1999/02/22-rdf-syntax-ns#"
   xmlns:svg="http://www.w3.org/2000/svg"
   xmlns="http://www.w3.org/2000/svg"
   xmlns:sodipodi="http://sodipodi.sourceforge.net/DTD/sodipodi-0.dtd"
   xmlns:inkscape="http://www.inkscape.org/namespaces/inkscape"
   width="207"
   height="55"
   viewBox="0 0 207 55"
   version="1.1"
   id="svg88"
   sodipodi:docname="a-kernel-for-jupyter.svg"
   inkscape:version="0.92.0 r">
  <metadata
     id="metadata92">
    <rdf:RDF>
      <cc:Work
         rdf:about="">
        <dc:format>image/svg+xml</dc:format>
        <dc:type
           rdf:resource="http://purl.org/dc/dcmitype/StillImage" />
        <dc:title>a kernel for jupyter</dc:title>
      </cc:Work>
    </rdf:RDF>
  </metadata>
  <sodipodi:namedview
     pagecolor="#3f3f3f"
     bordercolor="#666666"
     borderopacity="1"
     objecttolerance="10"
     gridtolerance="10"
     guidetolerance="10"
     inkscape:pageopacity="0"
     inkscape:pageshadow="2"
     inkscape:window-width="1920"
     inkscape:window-height="1009"
     id="namedview90"
     showgrid="true"
     inkscape:zoom="1"
     inkscape:cx="-83.286947"
     inkscape:cy="222.28948"
     inkscape:window-x="0"
     inkscape:window-y="0"
     inkscape:window-maximized="1"
     inkscape:current-layer="text"
     fit-margin-top="0"
     fit-margin-left="0"
     fit-margin-right="0"
     fit-margin-bottom="0">
    <inkscape:grid
       type="xygrid"
       id="grid4500" />
  </sodipodi:namedview>
  <title
     id="title2">a kernel for jupyter</title>
  <defs
     id="defs10" />
  <g
     style="fill:none;fill-rule:evenodd;stroke:none;stroke-width:1"
     id="canvas"
     transform="translate(-0.395294,-0.23662842)">
    <g
       id="logo">
      <path
         style="fill:#f37726"
         inkscape:connector-curvature="0"
         id="shell1"
         d="m 21.964408,11.440811 c 8.619828,0 16.147765,3.158532 20.055357,7.833511 C 40.564424,15.079406 37.852047,11.444446 34.258165,8.8725964 30.664173,6.300747 26.366447,4.919216 21.959686,4.919216 c -4.40676,0 -8.704486,1.381531 -12.298478,3.9533804 -3.5939263,2.5718496 -6.3062698,6.2068096 -7.7616,10.4017256 3.9172,-4.665316 11.445082,-7.833511 20.0648,-7.833511 z" />
      <path
         style="fill:#f37726"
         inkscape:connector-curvature="0"
         id="shell2"
         d="m 21.965835,41.850786 c -8.619718,0 -16.1476329,-3.15852 -20.055247,-7.833532 1.4553302,4.194949 4.1676737,7.829909 7.7616,10.401758 3.593992,2.571795 7.891718,3.953348 12.298478,3.953348 4.406761,0 8.704487,-1.381553 12.298479,-3.953348 3.593882,-2.571849 6.306259,-6.206809 7.7616,-10.401758 -3.917255,4.675012 -11.445083,7.833532 -20.06491,7.833532 z" />
      <path
         style="fill:#6f7070"
         inkscape:connector-curvature="0"
         id="moon1"
         d="M 2.8930148,10.383377 C 2.419672,10.404009 1.9508971,10.282533 1.5460281,10.034354 1.1411569,9.7861643 0.81839925,9.4224278 0.61860333,8.9891635 0.41880697,8.5558992 0.3509554,8.0725972 0.42363615,7.6004184 0.49631701,7.1282505 0.7062631,6.6884419 1.0269004,6.3366554 1.3475378,5.9848733 1.7644501,5.7369338 2.2248689,5.6242214 c 0.4604188,-0.1127125 0.9436439,-0.085132 1.3885145,0.079252 0.4448706,0.164383 0.8313914,0.4581788 1.1106228,0.8442 0.2792313,0.3860267 0.4386337,0.8469176 0.458025,1.3243451 0.025958,0.63896 -0.200469,1.262229 -0.6295937,1.7330353 -0.4291247,0.4708172 -1.025909,0.7507292 -1.6594227,0.7783232 z" />
      <path
         style="fill:#767677"
         inkscape:connector-curvature="0"
         id="moon2"
         d="m 40.839955,3.4632155 c 0.02785,0.6452628 -0.134707,1.2843436 -0.467084,1.8364157 -0.332376,0.5520612 -0.819653,0.9922981 -1.400176,1.2650071 -0.580522,0.27272 -1.228211,0.365647 -1.86111,0.2670431 C 36.478686,6.7330665 35.889006,6.4473567 35.417143,6.0106775 34.945285,5.5740092 34.612454,5.0059936 34.460758,4.3785081 34.309061,3.7510226 34.345317,3.0922649 34.564937,2.4855653 34.784558,1.8788548 35.177673,1.3514852 35.694554,0.97015922 36.211423,0.58883325 36.82884,0.37068899 37.468678,0.34332628 c 0.857163,-0.0366567 1.693693,0.27134384 2.325823,0.85633742 0.63213,0.5849903 1.008154,1.3991314 1.045454,2.2635518 z" />
      <path
         style="fill:#989798"
         inkscape:connector-curvature="0"
         id="moon3"
         d="M 10.132585,50.941751 C 10.16793,51.75531 9.9631131,52.56115 9.5440794,53.257241 9.1250457,53.953332 8.5106269,54.50838 7.77863,54.85211 7.0466331,55.195829 6.2299555,55.312781 5.4320214,55.188143 4.6340763,55.063504 3.8907476,54.702886 3.2961374,54.151945 2.701536,53.601004 2.2823947,52.884512 2.0917828,52.093199 1.9011712,51.301875 1.9476617,50.471307 2.225368,49.706654 2.5030753,48.941991 2.9995098,48.277633 3.6518143,47.797683 4.3041265,47.317733 5.0829767,47.043777 5.889761,47.0105 c 1.079131,-0.04451 2.1317333,0.344315 2.9270651,1.081241 0.7953317,0.736921 1.2684879,1.76182 1.3157589,2.85001 z" />
    </g>
    <g
       id="text"
       transform="translate(54,3)">
      <g
         id="jupyter"
         style="fill:#ffffff;fill-opacity:1"
         transform="translate(0.901961,7.4584274)">
        <path
           inkscape:connector-curvature="0"
           style="fill:#ffffff;fill-opacity:1"
           id="path0_fill"
           d="m 7.1327748,26.525992 c 0,5.650619 -0.4309804,7.495545 -1.5802871,8.857443 -1.2545866,1.15942 -2.8955514,1.800674 -4.5971937,1.796612 l 0.430987,3.361317 c 2.6375056,0.03656 5.1942899,-0.917082 7.1735495,-2.675482 2.0591525,-2.144361 2.7774685,-5.109726 2.7774685,-9.659122 V 6.840784 H 7.1231999 V 26.55498 l 0.00957,-0.02899 z" />
        <path
           inkscape:connector-curvature="0"
           style="fill:#ffffff;fill-opacity:1"
           id="path1_fill"
           d="m 38.564565,23.951419 c 0,2.434133 0,4.578384 0.191498,6.42331 h -3.687325 l -0.239373,-3.863671 h -0.09586 c -0.776204,1.350369 -1.895325,2.467624 -3.24207,3.23669 -1.346744,0.769177 -2.872393,1.162275 -4.419882,1.138886 -3.639451,0 -7.987631,-2.047733 -7.987631,-10.315858 V 6.796862 h 4.214099 v 13.068753 c 0,4.481867 1.340848,7.495435 5.162266,7.495435 1.198763,-0.02207 2.364419,-0.400455 3.350788,-1.087827 0.986478,-0.687263 1.749835,-1.652879 2.194541,-2.775734 0.255624,-0.702196 0.385412,-1.44469 0.383106,-2.192674 V 6.8161802 h 4.214165 V 23.951419 h -0.03832 z" />
        <path
           inkscape:connector-curvature="0"
           style="fill:#ffffff;fill-opacity:1"
           id="path2_fill"
           d="m 46.506844,14.501057 c 0,-3.013646 -0.09578,-5.447735 -0.19155,-7.7272886 h 3.783108 l 0.191552,4.0375036 h 0.09577 c 0.827636,-1.446612 2.031428,-2.637699 3.481378,-3.4446041 1.449939,-0.8068974 3.090914,-1.1989503 4.745681,-1.1338096 5.593302,0 9.807357,4.8295567 9.807357,11.9772437 0,8.471043 -5.066463,12.653474 -10.535247,12.653474 -1.403821,0.0594 -2.798836,-0.250463 -4.048097,-0.898965 -1.24926,-0.648611 -2.309813,-1.613678 -3.07754,-2.800439 h -0.09578 V 39.962478 H 46.497267 V 14.462417 Z m 4.166216,6.278456 c 0.01099,0.587342 0.07511,1.172597 0.191542,1.748298 0.343269,1.427781 1.151953,2.697993 2.296406,3.606949 1.144465,0.909067 2.558399,1.404173 4.015168,1.40604 4.453581,0 7.02991,-3.699404 7.02991,-9.098792 0,-4.723348 -2.442259,-8.7608491 -6.886243,-8.7608491 -1.494552,0.042176 -2.932226,0.5869791 -4.084497,1.5478071 -1.152283,0.960839 -1.953028,2.282549 -2.274962,3.755042 -0.168801,0.568147 -0.265352,1.155609 -0.287324,1.748298 v 4.037545 0.0097 z" />
        <path
           inkscape:connector-curvature="0"
           style="fill:#ffffff;fill-opacity:1"
           id="path3_fill"
           d="m 75.875136,6.818823 5.066496,13.918745 c 0.526762,1.555153 1.10141,3.409741 1.484549,4.829616 h 0.09575 c 0.43098,-1.410212 0.909835,-3.216486 1.484549,-4.916471 L 88.603639,6.8284821 h 4.453538 L 86.745538,23.625631 c -3.016863,8.07509 -5.066441,12.218761 -7.939691,14.749521 -1.451861,1.361898 -3.231409,2.317522 -5.162267,2.77211 l -1.053525,-3.602776 c 1.35094,-0.45393 2.60277,-1.165569 3.687337,-2.096047 1.532511,-1.291514 2.745768,-2.925177 3.543669,-4.77164 0.170349,-0.31887 0.283821,-0.665411 0.335209,-1.023811 -0.03783,-0.386291 -0.134751,-0.764236 -0.287324,-1.120549 L 71.306667,6.8284821 h 4.597194 z" />
        <path
           inkscape:connector-curvature="0"
           style="fill:#ffffff;fill-opacity:1"
           id="path4_fill"
           d="m 104.11773,0.043922 v 6.7613741 h 6.02428 v 3.2647779 h -6.02428 v 12.69206 c 0,2.897725 0.81408,4.578384 3.16057,4.578384 0.82322,0.01296 1.64444,-0.08455 2.44228,-0.289773 l 0.1915,3.216487 c -1.19851,0.42571 -2.46521,0.622259 -3.73519,0.579545 -0.84221,0.05205 -1.68553,-0.08169 -2.47124,-0.392 -0.78569,-0.310306 -1.49485,-0.7896 -2.07807,-1.404612 -1.19719,-1.26527 -1.628172,-3.361318 -1.628172,-6.133427 V 10.070074 H 96.407843 V 6.8052961 h 3.591565 V 1.1547204 Z" />
        <path
           inkscape:connector-curvature="0"
           style="fill:#ffffff;fill-opacity:1"
           id="path5_fill"
           d="m 117.90581,19.367545 c 0.0958,5.795451 3.73522,8.181271 7.9397,8.181271 2.19816,0.06961 4.38491,-0.345773 6.40738,-1.217067 l 0.71834,3.061992 c -2.42326,1.026337 -5.03451,1.52342 -7.66201,1.458526 -7.12567,0 -11.38765,-4.771639 -11.38765,-11.880785 0,-7.109057 4.11833,-12.701678 10.86088,-12.701678 7.55664,0 9.57747,6.761374 9.57747,11.098322 -0.007,0.668815 -0.055,1.336533 -0.14362,1.999419 h -16.28176 z m 12.34536,-3.061926 c 0.0479,-2.723873 -1.10133,-6.964215 -5.83266,-6.964215 -4.26199,0 -6.12002,3.989209 -6.45523,6.964215 h 12.29744 z" />
        <path
           inkscape:connector-curvature="0"
           style="fill:#ffffff;fill-opacity:1"
           id="path6_fill"
           d="m 140.48802,14.163102 c 0,-2.772164 -0.0479,-5.1579619 -0.19155,-7.3505804 h 3.68734 l 0.14365,4.6267084 h 0.19156 c 1.05352,-3.168184 3.59156,-5.1579598 6.40734,-5.1579598 0.40369,-0.00595 0.80634,0.042778 1.19714,0.1448865 v 4.0375093 c -0.47172,-0.103732 -0.95377,-0.152342 -1.43658,-0.144887 -2.96902,0 -5.06649,2.289203 -5.64114,5.496027 -0.11855,0.659998 -0.18262,1.328759 -0.19155,1.999453 v 12.556847 h -4.16621 z" />
      </g>
      <text
         style="font-weight:bold;font-size:10px;font-family:MyriadPro-Bold, 'Myriad Pro';letter-spacing:2;fill:#989798;fill-opacity:1"
         letter-spacing="2"
         font-weight="bold"
         font-size="10"
         id="a-kernel-for">
        <tspan
           style="fill:#989798;fill-opacity:1"
           id="tspan75"
           y="8"
           x="8">A KERNEL FOR</tspan>
      </text>
    </g>
  </g>
</svg>
